<svg width="105" height="104" xmlns="http://www.w3.org/2000/svg" xmlns:xlink="http://www.w3.org/1999/xlink" xml:space="preserve" overflow="hidden"><defs><clipPath id="clip0"><rect x="374" y="48" width="105" height="104"/></clipPath></defs><g clip-path="url(#clip0)" transform="translate(-374 -48)"><path d="M48.8154 68.9641C48.8154 67.6986 49.8427 66.6673 51.1123 66.6673 52.3778 66.6673 53.4091 67.6945 53.4091 68.9641L53.4091 91.0729C53.4091 93.2408 52.5224 95.2134 51.0928 96.6431L51.085 96.6509C49.6553 98.0806 47.6827 98.9673 45.5186 98.9673L38.4914 98.9673C36.3195 98.9673 34.3431 98.0806 32.9134 96.647 31.4837 95.2173 30.597 93.2408 30.597 91.069L30.597 68.9602C30.597 67.6947 31.6243 66.6634 32.8939 66.6634 34.1635 66.6634 35.1908 67.6907 35.1908 68.9602L35.1908 91.069C35.1908 91.9753 35.5619 92.8033 36.1633 93.4048 36.7649 94.0064 37.593 94.3775 38.4992 94.3775L45.5264 94.3775C46.4366 94.3775 47.2647 94.0064 47.8623 93.4087 48.46 92.8072 48.8272 91.979 48.8272 91.0729L48.8272 68.9641ZM7.54591 36.5695 7.54591 25.4177C7.54591 22.6325 8.67869 20.1052 10.5147 18.2733 12.3427 16.4452 14.874 15.3045 17.6591 15.3045L30.5849 15.3045 30.5849 8.91789C30.5849 6.74212 31.4716 4.76954 32.9013 3.33986 32.9521 3.28908 32.999 3.2422 33.0536 3.20314 34.4755 1.85156 36.3855 1.02347 38.4793 1.02347L45.5065 1.02347C47.6784 1.02347 49.6549 1.91018 51.0846 3.34374 51.1315 3.39062 51.1784 3.4414 51.2214 3.49218 52.5729 4.90626 53.401 6.82413 53.401 8.92181L53.401 15.3084 72.5728 15.3084C74.065 15.3084 75.4673 15.6092 76.7563 16.1912 78.0415 16.7733 79.1899 17.6365 80.1782 18.7693L89.9281 29.9171C91.6039 31.839 92.4436 34.2023 92.4436 36.5693 92.4436 38.9326 91.6038 41.2998 89.9281 43.2216L80.1782 54.3734C79.1899 55.5062 78.0376 56.3695 76.7563 56.9515 75.4712 57.5375 74.065 57.8343 72.5728 57.8343L17.6515 57.8343C14.8663 57.8343 12.339 56.7015 10.5071 54.8655 8.67895 53.0335 7.53827 50.5062 7.53827 47.7211L7.53827 36.5732ZM35.1746 15.3078 48.8114 15.3078 48.8114 8.92119C48.8114 8.05792 48.4794 7.26891 47.9325 6.67902L47.8387 6.59308C47.2372 5.99153 46.409 5.62043 45.5028 5.62043L38.4756 5.62043C37.6085 5.62043 36.8194 5.95246 36.2334 6.49542L36.1397 6.59308C35.5382 7.19463 35.1671 8.01886 35.1671 8.92895L35.1671 15.3156Z" fill="#595959" transform="matrix(1.01271 0 0 1 379.063 51.3026)"/><text fill="#595959" font-family="Helvetica,Helvetica_MSFontService,sans-serif" font-weight="700" font-size="5" transform="matrix(1.01269 0 0 0.999987 379.063 169)">Created by ARISO</text><text fill="#595959" font-family="Helvetica,Helvetica_MSFontService,sans-serif" font-weight="700" font-size="5" transform="matrix(1.01269 0 0 0.999987 379.063 174)">from Noun Project</text></g></svg>