<svg width="100" height="103" xmlns="http://www.w3.org/2000/svg" xmlns:xlink="http://www.w3.org/1999/xlink" xml:space="preserve" overflow="hidden"><defs><clipPath id="clip0"><rect x="590" y="297" width="100" height="103"/></clipPath></defs><g clip-path="url(#clip0)" transform="translate(-590 -297)"><path d="M63.52 31.05 40.22 31.05 42.27 29.53C43.88 28.33 44.93 26.58 45.22 24.6 45.51 22.62 45.02 20.64 43.82 19.03 41.35 15.71 36.64 15.01 33.32 17.48L13.03 32.54C11.13 33.95 10 36.2 10 38.57 10 40.94 11.13 43.19 13.03 44.6L33.32 59.66C34.62 60.63 36.17 61.14 37.79 61.14 40.16 61.14 42.41 60.01 43.82 58.11 45.02 56.5 45.51 54.52 45.22 52.54 44.93 50.56 43.88 48.81 42.27 47.61L40.22 46.09 63.52 46.09C69.84 46.09 74.98 51.23 74.98 57.55 74.98 63.87 69.84 69.02 63.52 69.02L17.76 69.02C13.62 69.02 10.25 72.39 10.25 76.53 10.25 80.67 13.62 84.04 17.76 84.04L63.52 84.04C78.12 84.04 90 72.16 90 57.56 90 42.96 78.12 31.08 63.52 31.08Z" transform="matrix(1 0 0 1.00488 590 297)"/><text font-family="Helvetica,Helvetica_MSFontService,sans-serif" font-weight="700" font-size="5" transform="matrix(1 0 0 1.00488 590 413)">Created by Uswa KDT</text><text font-family="Helvetica,Helvetica_MSFontService,sans-serif" font-weight="700" font-size="5" transform="matrix(1 0 0 1.00488 590 418)">from the Noun Project</text></g></svg>