<svg width="110" height="116" xmlns="http://www.w3.org/2000/svg" xmlns:xlink="http://www.w3.org/1999/xlink" xml:space="preserve" overflow="hidden"><defs><clipPath id="clip0"><rect x="585" y="302" width="110" height="116"/></clipPath></defs><g clip-path="url(#clip0)" transform="translate(-585 -302)"><path d="M76.2187 38.9572C76.2187 40.2174 75.1958 41.2443 73.9317 41.2443 72.6715 41.2443 71.6446 40.2214 71.6446 38.9572 71.6446 32.9207 69.1982 27.4557 65.2425 23.5008 61.2868 19.5451 55.8222 17.0987 49.7861 17.0987 43.75 17.0987 38.2806 19.5451 34.3296 23.5008 30.374 27.4564 27.9275 32.9211 27.9275 38.9572 27.9275 44.9933 30.374 50.4627 34.3296 54.4136 38.2853 58.3693 43.75 60.8158 49.7861 60.8158 51.0462 60.8158 52.0731 61.8387 52.0731 63.1028 52.0731 64.363 51.0502 65.3899 49.7861 65.3899 42.4894 65.3899 35.877 62.4299 31.0966 57.6459 26.3125 52.8618 23.3526 46.257 23.3526 38.9564 23.3526 31.6597 26.3087 25.0473 31.0966 20.2669 35.8807 15.4828 42.4855 12.523 49.7861 12.523 57.0828 12.523 63.6952 15.479 68.4756 20.2669 73.2597 25.051 76.2195 31.6559 76.2195 38.9564ZM39.4511 44.5192C38.4904 43.7101 38.366 42.2749 39.1749 41.3142 39.9801 40.3535 41.4192 40.229 42.3799 41.038L47.514 45.3592 57.6115 32.162C58.3778 31.1624 59.8052 30.9719 60.8087 31.7342 61.8083 32.5004 61.9988 33.9278 61.2404 34.9313L49.6961 50.0223 49.6883 50.0184 49.6222 50.104C48.8132 51.0647 47.378 51.1891 46.4172 50.3802L39.455 44.5187ZM63.0793 84.1724C61.8891 83.764 61.2591 82.4688 61.6713 81.2786 62.0797 80.0885 63.3749 79.4584 64.5611 79.8706 67.0388 80.7263 69.0885 81.8076 70.5276 83.0561 72.2157 84.5146 73.1569 86.2183 73.1569 88.1085 73.1569 91.3991 70.2398 94.1762 65.5179 96.0003 61.4457 97.5755 55.8797 98.5518 49.7887 98.5518 43.6977 98.5518 38.1319 97.5795 34.0594 96.0003 29.3414 94.1762 26.4204 91.3991 26.4204 88.1085 26.4204 86.2183 27.3578 84.5107 29.0497 83.0561 30.4888 81.8114 32.5347 80.7302 35.0162 79.8706 36.2064 79.4622 37.4977 80.0923 37.906 81.2786 38.3144 82.4688 37.6843 83.7602 36.498 84.1724 34.5727 84.8375 33.0402 85.6309 32.0328 86.4983 31.3677 87.0739 30.9982 87.6223 30.9982 88.1046 30.9982 89.3182 32.799 90.6211 35.7084 91.7452 39.2673 93.122 44.242 93.9739 49.7957 93.9739 55.346 93.9739 60.3204 93.1221 63.8831 91.7452 66.7924 90.6172 68.5933 89.3181 68.5933 88.1046 68.5933 87.6223 68.2238 87.07 67.5586 86.4983 66.5513 85.6309 65.0188 84.8374 63.0935 84.1724ZM56.3427 71.6712C64.0517 70.131 70.8035 65.9381 75.6038 60.0841 80.3179 54.3355 83.1416 46.9766 83.1416 38.9601 83.1416 29.7459 79.4077 21.4067 73.3751 15.3707 67.3386 9.33808 58.999 5.60416 49.7857 5.60416 40.5724 5.60416 32.2323 9.33808 26.1963 15.3707 20.1598 21.4072 16.4297 29.7468 16.4297 38.9601 16.4297 46.9764 19.2574 54.3349 23.9676 60.0841 28.7633 65.9417 35.5198 70.1348 43.2286 71.6712 43.9287 71.8112 44.4966 72.2585 44.8077 72.8497L49.7902 80.9827 54.8465 72.7214C55.1926 72.1535 55.7449 71.7918 56.3478 71.6712L56.3478 71.6634ZM79.1396 62.9743C73.8888 69.3842 66.5806 74.0396 58.2216 75.9414L51.7495 86.5129C51.5667 86.8241 51.3061 87.0924 50.9755 87.2947 49.902 87.952 48.4979 87.6097 47.8406 86.5362L41.353 75.9449C32.9945 74.0468 25.6864 69.3872 20.435 62.9777 15.0753 56.4356 11.8587 48.0729 11.8587 38.9562 11.8587 28.4813 16.106 18.9991 22.9668 12.1337 29.8318 5.26875 39.3144 1.02552 49.7893 1.02552 60.2642 1.02552 69.7464 5.27283 76.6118 12.1337 83.4767 18.9986 87.72 28.4813 87.72 38.9562 87.72 48.0692 84.5033 56.4359 79.1436 62.9777Z" fill="#FFFFFF" transform="matrix(1.00431 0 0 1 590 311.957)"/><text fill="#FFFFFF" font-family="Helvetica,Helvetica_MSFontService,sans-serif" font-weight="700" font-size="5" transform="matrix(1 0 0 0.995712 590 429)">Created by YANDI RS</text><text fill="#FFFFFF" font-family="Helvetica,Helvetica_MSFontService,sans-serif" font-weight="700" font-size="5" transform="matrix(1 0 0 0.995712 590 434)">from Noun Project</text></g></svg>