<svg width="402" height="402" xmlns="http://www.w3.org/2000/svg" xmlns:xlink="http://www.w3.org/1999/xlink" xml:space="preserve" overflow="hidden"><defs><clipPath id="clip0"><rect x="438" y="96" width="402" height="402"/></clipPath></defs><g clip-path="url(#clip0)" transform="translate(-438 -96)"><path d="M639.806 497.593C529.596 497.593 439.907 407.904 439.907 297.694 439.907 187.485 529.596 97.7955 639.806 97.7955 750.015 97.7955 839.705 187.485 839.705 297.694 839.705 407.904 750.015 497.593 639.806 497.593ZM639.806 129.827C547.214 129.827 471.939 205.102 471.939 297.694 471.939 390.287 547.214 465.561 639.806 465.561 732.398 465.561 807.673 390.287 807.673 297.694 807.673 205.102 732.398 129.827 639.806 129.827Z" fill="#7F7F7F"/><path d="M639.806 404.401C630.997 404.401 623.79 397.193 623.79 388.385L623.79 298.195C623.79 289.386 630.997 282.179 639.806 282.179 648.615 282.179 655.822 289.386 655.822 298.195L655.822 388.385C655.822 397.193 648.615 404.401 639.806 404.401Z" fill="#7F7F7F"/><path d="M643.671 207.306C656.768 209.431 665.662 221.772 663.536 234.868 661.411 247.965 649.071 256.859 635.974 254.734 622.877 252.608 613.983 240.268 616.108 227.171 618.234 214.074 630.574 205.18 643.671 207.306Z" fill="#7F7F7F"/><text fill="#7F7F7F" font-family="Helvetica,Helvetica_MSFontService,sans-serif" font-weight="700" font-size="5" transform="matrix(1.001 0 0 1.001 389.557 563)">Created by Syed Raheel</text><text fill="#7F7F7F" font-family="Helvetica,Helvetica_MSFontService,sans-serif" font-weight="700" font-size="5" transform="matrix(1.001 0 0 1.001 389.557 568)">from the Noun Project</text></g></svg>