<svg width="95" height="95" xmlns="http://www.w3.org/2000/svg" xmlns:xlink="http://www.w3.org/1999/xlink" xml:space="preserve" overflow="hidden"><defs><clipPath id="clip0"><rect x="334" y="186" width="95" height="95"/></clipPath></defs><g clip-path="url(#clip0)" transform="translate(-334 -186)"><path d="M381.552 281 381.552 281C407.697 281 428.952 259.745 428.952 233.6L428.952 233.6C428.952 207.455 407.697 186.2 381.552 186.2L381.552 186.2C355.407 186.2 334.152 207.455 334.152 233.6L334.152 233.6C334.152 259.745 355.407 281 381.552 281ZM359.798 219.23C357.702 217.134 357.702 213.941 359.798 211.846 361.893 209.75 365.087 209.75 367.182 211.846L381.552 226.215 395.922 211.846C398.017 209.75 401.21 209.75 403.306 211.846 405.402 213.941 405.402 217.134 403.306 219.23L388.936 233.6 403.306 247.97C405.402 250.065 405.402 253.258 403.306 255.354 402.308 256.352 401.011 256.851 399.614 256.851 398.217 256.851 396.92 256.352 395.922 255.354L381.552 240.984 367.182 255.354C366.184 256.352 364.887 256.851 363.49 256.851 362.093 256.851 360.796 256.352 359.798 255.354 357.702 253.258 357.702 250.065 359.798 247.97L374.167 233.6 359.798 219.23Z" fill="#DB2020"/><text fill="#DB2020" font-family="Helvetica,Helvetica_MSFontService,sans-serif" font-weight="700" font-size="5" transform="matrix(0.997899 0 0 0.997899 331.657 298)">Created by nabilahazharah</text><text fill="#DB2020" font-family="Helvetica,Helvetica_MSFontService,sans-serif" font-weight="700" font-size="5" transform="matrix(0.997899 0 0 0.997899 331.657 303)">from the Noun Project</text></g></svg>