<svg width="322" height="322" xmlns="http://www.w3.org/2000/svg" xmlns:xlink="http://www.w3.org/1999/xlink" xml:space="preserve" overflow="hidden"><g transform="translate(-155 -337)"><path d="M230.091 364.735C244.745 362.282 259.524 363.54 273.234 368.068L304.554 416.808 257.134 464.228C256.191 465.171 255.625 466.492 255.688 467.875 255.751 469.259 256.317 470.517 257.323 471.46L327.761 536.866C329.584 538.564 332.414 538.69 334.364 537.055 336.314 535.42 336.754 532.653 335.433 530.514L297.447 468.819 354.489 421.273C356.124 419.953 356.69 417.689 355.998 415.739L341.659 375.866C359.583 365.364 380.903 361.276 401.846 364.798 445.24 371.967 477 409.45 477 453.411L477 457.058C477 483.158 466.183 508.125 447.064 525.923L333.421 632.02C328.704 636.422 322.478 638.875 316 638.875 309.522 638.875 303.296 636.422 298.579 632.02L184.936 525.923C165.817 508.125 155 483.158 155 457.058L155 453.411C155 409.45 186.76 371.967 230.091 364.735Z" fill="#FF6F61"/></g></svg>