<svg width="409" height="409" xmlns="http://www.w3.org/2000/svg" xmlns:xlink="http://www.w3.org/1999/xlink" xml:space="preserve" overflow="hidden"><defs><clipPath id="clip0"><rect x="265" y="116" width="409" height="409"/></clipPath></defs><g clip-path="url(#clip0)" transform="translate(-265 -116)"><path d="M297.421 25.3425C312.653 8.41837 339.191 8.41837 354.423 25.3425L392.938 68.1375C397.66 73.3842 397.235 81.4658 391.988 86.1878 386.741 90.9098 378.659 90.4842 373.937 85.2375L338.703 46.0886 338.703 153.375C338.703 160.434 332.981 166.156 325.922 166.156 318.863 166.156 313.141 160.434 313.141 153.375L313.141 46.0885 277.907 85.2375C273.185 90.4842 265.103 90.9098 259.856 86.1878 254.609 81.4651 254.184 73.3842 258.906 68.1368L297.421 25.3425ZM115.031 38.3437C72.678 38.3437 38.3438 72.678 38.3438 115.031L38.3438 293.969C38.3438 296.427 38.4595 298.859 38.6858 301.259L67.6703 254.884C99.8005 203.476 172.679 198.231 211.838 244.511L244.868 283.545C274.081 239.421 341.367 238.85 370.656 284.648L370.656 204.5C370.656 197.441 376.378 191.719 383.438 191.719 390.497 191.719 396.219 197.441 396.219 204.5L396.219 293.969C396.219 350.439 350.44 396.219 293.969 396.219L115.031 396.219C58.5601 396.219 12.7812 350.439 12.7812 293.969L12.7812 115.031C12.7812 58.56 58.5601 12.7812 115.031 12.7812L226.867 12.7812C233.926 12.7812 239.648 18.5035 239.648 25.5624 239.648 32.6213 233.926 38.3437 226.867 38.3437L115.031 38.3437Z" fill="#FFFFFF" fill-rule="evenodd" transform="matrix(1 0 0 1.00071 265 116)"/><text fill="#FFFFFF" font-family="Helvetica,Helvetica_MSFontService,sans-serif" font-weight="700" font-size="5" transform="matrix(6.39062 0 0 6.39518 265 621)">Created by Heztasia</text><text fill="#FFFFFF" font-family="Helvetica,Helvetica_MSFontService,sans-serif" font-weight="700" font-size="5" transform="matrix(6.39062 0 0 6.39518 265 653)">from the Noun Project</text></g></svg>