<?xml version="1.0" encoding="UTF-8"?>
<svg xmlns="http://www.w3.org/2000/svg" version="1.1" viewBox="0 0 1144.4 1081.8">
  <defs>
    <style>
      .cls-1 {
        isolation: isolate;
        opacity: .2;
      }

      .cls-2 {
        fill: #2f2e41;
      }

      .cls-3 {
        fill: #e6e6e6;
      }

      .cls-4 {
        fill: #3f3d56;
      }

      .cls-5 {
        fill: #f6776b;
      }

      .cls-6 {
        fill: #fff;
      }

      .cls-7 {
        fill: #a0616a;
      }

      .cls-8 {
        fill: #f9a825;
      }
    </style>
  </defs>
  <!-- Generator: Adobe Illustrator 28.6.0, SVG Export Plug-In . SVG Version: 1.2.0 Build 709)  -->
  <g>
    <g id="_圖層_2" data-name="圖層_2">
      <path class="cls-5" d="M650.9,131.4c59.1-79.4,191.9-136.3,300.1-86.7,110.6,50.7,173.6,184.5,138.3,262.6-62,137.5-411.8,65.6-438.4,171.1-17.8,70.6,133.1,125.2,136,274.3,1.4,73.5-34,129.2-44.5,145.4-10.7,16.4-65.6,100.3-172.6,118-86.5,14.3-185.9-18.2-233-87.5-57.4-84.7,5.8-161.3-51.6-227.4-61.5-70.9-162.7-15.7-213.3-77.4-60.8-74.2-13.9-275,105.5-342.3,148.8-83.8,347,75.4,429-14.1,35.6-38.8,1-77.4,44.5-136Z"/>
    </g>
    <g id="_圖層_1" data-name="圖層_1">
      <rect class="cls-4" x="437.6" y="900.9" width="519.6" height="2.2"/>
      <path class="cls-7" d="M860.2,519.9c3.9,4.6,3.4,11.6-1.2,15.5-.3.2-.6.5-.9.7l-53.8,36.9-23.7,15.8c-2.8,1.9-6.5,1.3-8.6-1.3h0c-2.3-2.8-1.9-6.9.9-9.2.3-.2.6-.4.9-.6l22.9-13.3,40-38.1-25.7-27.6,19.1-14.3,30.2,35.5Z"/>
      <polygon class="cls-7" points="733.8 867.5 720.6 867.5 712.8 758.8 746.2 757.9 733.8 867.5"/>
      <path class="cls-2" d="M734.7,902.7c-3.5,1.6-6.4-11.4-9.4-8.5-8.3,8.1-20.9,9.9-32,6.4h3.9c-2.7-.9-4.2-3.8-3.3-6.6,0,0,0-.2,0-.2h0c.6-1.6,1.9-2.8,3.6-3.2l8.8-2.2,13.8-24.3,14.1-1h0c6.4,8.1,8.7,18.7,6.2,28.7-1.3,5.2-3.3,9.7-5.8,10.8Z"/>
      <polygon class="cls-7" points="821.3 867.5 808.2 867.5 800.4 758.8 834.7 752.2 821.3 867.5"/>
      <path class="cls-2" d="M822.3,902.7c-3.5,1.6-6.4-11.4-9.4-8.5-8.3,8.1-20.9,9.9-32,6.4h3.9c-2.7-.9-4.2-3.8-3.3-6.6,0,0,0-.2,0-.2h0c.6-1.6,1.9-2.8,3.6-3.2l8.8-2.2,13.8-24.3,15.1-1.9.4.6c5.9,9.5,7.4,21.1,4.2,31.7-1.3,4-3,7.2-5,8.1Z"/>
      <path class="cls-5" d="M836.3,486.9c-12.1,1.7-20.5,8.3-23.9,21.5l-22.2-41c-2.7-5.4-1.1-12,3.9-15.4h0c5.3-3.7,12.5-2.6,16.5,2.4l25.7,32.5Z"/>
      <path class="cls-2" d="M859.6,747.4c-54.1,23.9-109.4,26.9-165.8,11.4,20.6-79.9,44.9-152.2,44.8-211.6l55.3-4.8,8.5,13.5c20.2,32,34.1,67.6,41.1,104.8l16.2,86.6Z"/>
      <circle class="cls-7" cx="769" cy="395.8" r="28.6"/>
      <polygon class="cls-7" points="800.5 446.3 765.2 448.2 759.5 416.7 788.1 412 800.5 446.3"/>
      <path class="cls-5" d="M796.7,547.3l-38.6,1.1-19.5,2.7c-9.6-31.6-17.6-63.2,1.9-89.6l22.9-22.9,34.3-1,.5.3c11.2,6.4,16.5,19.8,12.7,32.1-8.5,27.7-14,53.8-14.1,77.2Z"/>
      <path class="cls-7" d="M737.6,635.9l-2.4,32.7c-.3,3.6-3.2,6.5-6.8,6.7h0c-4,.3-7.5-2.8-7.8-6.8,0-.2,0-.4,0-.7l.8-32,23.8-90.5,1-55.3,26.7-1-1.9,63.8-33.4,82.9Z"/>
      <path class="cls-5" d="M775.7,493.9c-11.3-4.6-21.9-3.1-31.4,6.7l1.3-46.7c.3-6,5.1-10.9,11.1-11.4h0c6.4-.6,12.2,4,13.1,10.4l6,41.1Z"/>
      <path class="cls-2" d="M829.5,523h-87.7c20.5-54.2,27-104.5,0-147.7.5-13,17.1-24.2,30-23h0c15.3,1.5,35.7,12.7,38.6,27.7l19.1,142.9Z"/>
      <path class="cls-4" d="M550.1,348.4h-4v-109.8c0-35.1-28.1-63.6-62.7-63.6h-229.5c-34.6,0-62.7,28.5-62.7,63.6h0v602.6c0,35.1,28.1,63.6,62.7,63.6h229.5c34.6,0,62.7-28.5,62.7-63.6h0v-414.6h4v-78.2Z"/>
      <path class="cls-6" d="M485.3,193.5h-30.3c4.7,11.5-.8,24.6-12.3,29.3-2.7,1.1-5.6,1.7-8.5,1.7h-133c-12.4,0-22.5-10.1-22.5-22.5,0-2.9.6-5.8,1.7-8.5h-28.3c-26.1,0-47.3,21.2-47.3,47.3v600.1c0,26.1,21.2,47.3,47.3,47.3h233.2c26.1,0,47.3-21.2,47.3-47.3h0V240.8c0-26.1-21.2-47.3-47.3-47.3Z"/>
      <rect class="cls-3" x="245.7" y="287.2" width="246" height="211"/>
      <circle class="cls-5" cx="318.7" cy="524.2" r="18"/>
      <polygon class="cls-6" points="327.7 522.7 320.2 522.7 320.2 515.2 317.2 515.2 317.2 522.7 309.7 522.7 309.7 525.7 317.2 525.7 317.2 533.2 320.2 533.2 320.2 525.7 327.7 525.7 327.7 522.7"/>
      <circle class="cls-5" cx="413.7" cy="524.2" r="18"/>
      <rect class="cls-6" x="404.7" y="522.7" width="18" height="3"/>
      <path class="cls-5" d="M377.9,313.5h-19.4c-1.4,0-2.6,1.2-2.6,2.6h0v8.5c0,1.4,1.2,2.6,2.6,2.6h3.2v12.8h13v-12.8h3.2c1.4,0,2.6-1.2,2.6-2.6h0v-8.5c0-1.4-1.2-2.6-2.6-2.6Z"/>
      <path class="cls-4" d="M397.3,391.6c-11.9-17.4-18-38.2-17.4-59.3,0-1-.7-1.9-1.6-2.1v-3.7h-20.5v3.6h-.3c-1.2,0-2.1.9-2.1,2.1h0c0,0,0,.1,0,.2,1.6,22.5-3.8,42.8-16.4,60.7-.7,1-1.1,2.3-1.1,3.5l2.2,69.4c.1,3.2,2.7,5.8,6,5.8h46.4c3.3,0,5.9-2.6,6-5.9l.9-67.4c0-2.5-.7-4.9-2.1-6.9Z"/>
      <path class="cls-1" d="M373.8,316.3c0,3.1-2.5,5.6-5.6,5.6-3.1,0-5.6-2.5-5.6-5.6h0"/>
      <path class="cls-5" d="M390,414.7h-5.6c-1.2-8.1-8.8-13.6-16.8-12.3-6.4,1-11.4,6-12.3,12.3h-5.6c-2.3,0-4.1,1.9-4.1,4.1s0,.4,0,.6l6.1,39.7h35.1l7.4-39.6c.4-2.3-1.1-4.4-3.3-4.8-.3,0-.5,0-.8,0Z"/>
      <rect class="cls-3" x="245.7" y="584.2" width="246" height="211"/>
      <circle class="cls-5" cx="318.7" cy="821.2" r="18"/>
      <polygon class="cls-6" points="327.7 819.7 320.2 819.7 320.2 812.2 317.2 812.2 317.2 819.7 309.7 819.7 309.7 822.7 317.2 822.7 317.2 830.2 320.2 830.2 320.2 822.7 327.7 822.7 327.7 819.7"/>
      <circle class="cls-5" cx="413.7" cy="821.2" r="18"/>
      <rect class="cls-6" x="404.7" y="819.7" width="18" height="3"/>
      <path class="cls-6" d="M417.1,734.1h.1c9.5,0,18-5.7,21.6-14.5,15.3-38.7-3.7-82.5-42.4-97.9s-82.5,3.7-97.9,42.4c-14.9,37.7,2.7,80.5,39.8,96.8,8.6,3.8,18.7,1.9,25.4-4.7,14.1-14.2,33.3-22.2,53.4-22.2Z"/>
      <circle class="cls-8" cx="378.4" cy="686.4" r="24.9"/>
    </g>
  </g>
</svg>