<svg width="110" height="117" xmlns="http://www.w3.org/2000/svg" xmlns:xlink="http://www.w3.org/1999/xlink" xml:space="preserve" overflow="hidden"><defs><clipPath id="clip0"><rect x="407" y="177" width="110" height="117"/></clipPath></defs><g clip-path="url(#clip0)" transform="translate(-407 -177)"><path d="M93.129 38.754 90.4337 60.703C90.4259 60.7538 90.422 60.8007 90.4142 60.8514L87.4728 84.8044C87.3282 85.9685 86.34 86.8239 85.1955 86.82L14.8085 86.82C13.6132 86.82 12.6288 85.9021 12.5233 84.7302L9.58967 60.8472C9.58185 60.8004 9.57795 60.7496 9.57014 60.6988L6.87484 38.7498 3.32404 38.7498C2.05454 38.7498 1.02714 37.7225 1.02714 36.4529 1.02714 35.1833 2.05444 34.156 3.32404 34.156L19.633 34.156 30.93 14.336C31.555 13.2383 32.9534 12.8516 34.0511 13.4766 35.1527 14.1016 35.5355 15.5 34.9105 16.5977L24.8985 34.1597 38.5895 34.1597 38.5895 34.1636C39.7379 34.1636 40.734 35.023 40.8668 36.1988 41.1285 38.4918 42.2496 40.5386 43.8941 42.0035 45.5191 43.4527 47.6636 44.3394 49.9957 44.3394 52.3316 44.3394 54.4762 43.4527 56.0973 42.0035 57.7184 40.5621 58.8278 38.5543 59.1129 36.3043 59.191 35.109 60.1871 34.1637 61.402 34.1637L75.093 34.1637 65.081 16.6017C64.456 15.504 64.8427 14.1056 65.9404 13.4806 67.042 12.8556 68.4365 13.2423 69.0615 14.34L80.3585 34.16 96.6675 34.16C97.937 34.16 98.9644 35.1873 98.9644 36.4569 98.9644 37.7225 97.9371 38.7538 96.6675 38.7538L93.1167 38.7538ZM13.883 58.195 86.117 58.195 88.5037 38.754 63.2927 38.754C62.5818 41.3673 61.1169 43.6759 59.1482 45.4337 56.7107 47.6095 53.5037 48.9337 49.9998 48.9337 46.4959 48.9337 43.285 47.6095 40.8514 45.4337 38.8826 43.6798 37.4178 41.3712 36.7069 38.754L11.4959 38.754ZM85.555 62.7848 14.45 62.7848 16.8367 82.2258 83.1647 82.2258 85.5514 62.7848Z" fill="#FFFFFF" transform="matrix(1 0 0 1.00428 412 187.043)"/><text fill="#FFFFFF" font-family="Helvetica,Helvetica_MSFontService,sans-serif" font-weight="700" font-size="5" transform="matrix(1 0 0 1.00428 412 305)">Created by YANDI RS</text><text fill="#FFFFFF" font-family="Helvetica,Helvetica_MSFontService,sans-serif" font-weight="700" font-size="5" transform="matrix(1 0 0 1.00428 412 310)">from Noun Project</text></g></svg>