<svg width="761" height="720" xmlns="http://www.w3.org/2000/svg" xmlns:xlink="http://www.w3.org/1999/xlink" xml:space="preserve" overflow="hidden"><g transform="translate(-105 0)"><path d="M115.963 452.242C81.4225 536.147 111.363 637.286 176.72 686.067 188.185 694.611 220.827 719.001 264.203 718.271 324.083 717.248 333.285 669.417 412.297 647.291 470.352 631.006 489.338 650.796 530.67 625.383 538.557 620.564 577.625 596.539 593.179 551.92 622.462 468.015 536.366 415.51 562.509 351.322 589.309 285.526 694.319 307.507 726.595 227.837 727.618 225.281 745.582 178.983 722.579 133.927 694.538 78.9397 629.254 72.4405 624.799 72.0753 573.098 67.7669 528.041 97.4879 506.061 131.079 486.563 160.8 497.444 174.821 481.014 241.347 464.437 308.383 455.382 344.749 427.852 361.399 377.83 391.704 327.224 320.651 243.099 338.104 182.051 350.811 136.118 403.315 116.036 452.169Z" fill="#F6776B" transform="matrix(1 0 0 1.00034 55.6355 -23.754)"/><path d="M221.849 598.802 217.029 579.889C208.558 576.311 199.869 573.171 191.033 570.542L190.448 579.305 187.965 569.665C177.012 566.525 169.563 565.138 169.563 565.138 169.563 565.138 179.641 603.476 200.818 632.759L225.427 637.067 206.295 639.842C208.924 643.055 211.845 646.049 214.839 648.897 245.582 677.45 279.831 690.521 291.368 678.18 302.906 665.839 287.279 632.613 256.536 604.06 246.969 595.224 234.993 588.141 223.017 582.518L221.922 598.802Z" fill="#F2F2F2" transform="matrix(1 0 0 1.00034 55.6355 -23.754)"/><path d="M267.416 578.282 273.112 559.661C267.708 552.213 261.866 545.056 255.659 538.192L250.621 545.421 253.542 535.855C245.801 527.53 240.105 522.492 240.105 522.492 240.105 522.492 228.932 560.537 231.853 596.539L250.694 612.969 232.876 605.448C233.533 609.537 234.409 613.626 235.505 617.643 247.042 657.952 269.607 686.87 285.892 682.27 302.176 677.669 305.9 641.157 294.362 600.774 290.784 588.287 284.212 576.019 276.837 564.992L267.489 578.355Z" fill="#F2F2F2" transform="matrix(1 0 0 1.00034 55.6355 -23.754)"/><path d="M549.146 268.439 546.152 268.439 546.152 186.578C546.152 160.435 524.974 139.185 498.759 139.185L325.325 139.185C299.182 139.185 277.932 160.362 277.932 186.578L277.932 635.68C277.932 661.823 299.109 683.073 325.325 683.073L498.759 683.073C524.901 683.073 546.152 661.896 546.152 635.68L546.152 326.712 549.146 326.712 549.146 268.439Z" fill="#E6E6E6" transform="matrix(1 0 0 1.00034 55.6355 -23.754)"/><path d="M500.657 151.526 478.02 151.526C481.525 160.143 477.435 169.928 468.818 173.434 466.774 174.237 464.656 174.675 462.465 174.675L363.079 174.675C353.805 174.675 346.283 167.153 346.283 157.879 346.283 155.689 346.721 153.571 347.524 151.526L326.347 151.526C306.777 151.526 290.93 167.373 290.93 186.943L290.93 186.943 290.93 635.388C290.93 654.958 306.777 670.805 326.347 670.805L500.657 670.805C520.228 670.805 536.074 654.958 536.074 635.388L536.074 635.388 536.074 186.87C536.074 167.3 520.228 151.453 500.657 151.453Z" fill="#FFFFFF" transform="matrix(1 0 0 1.00034 55.6355 -23.754)"/><path d="M391.339 330.145C391.339 323.791 394.771 317.876 400.248 314.663 391.704 309.698 380.824 312.692 375.858 321.163 370.892 329.706 373.886 340.587 382.357 345.553 387.907 348.766 394.698 348.766 400.248 345.553 394.698 342.34 391.339 336.498 391.339 330.072Z" fill="#CCCCCC" transform="matrix(1 0 0 1.00034 55.6355 -23.754)"/><path d="M413.758 330.145C413.758 323.791 417.19 317.876 422.667 314.663 414.123 309.698 403.242 312.692 398.277 321.163 393.311 329.706 396.305 340.587 404.776 345.553 410.326 348.766 417.117 348.766 422.667 345.553 417.117 342.34 413.758 336.498 413.758 330.072Z" fill="#CCCCCC" transform="matrix(1 0 0 1.00034 55.6355 -23.754)"/><path d="M453.629 330.145C453.629 340.026 445.619 348.036 435.738 348.036 425.857 348.036 417.847 340.026 417.847 330.145 417.847 320.264 425.857 312.254 435.738 312.254 445.619 312.254 453.629 320.264 453.629 330.145Z" fill="#FF6F61" transform="matrix(1 0 0 1.00034 55.6355 -23.754)"/><path d="M465.532 385.935 361.472 385.935C359.427 385.935 357.748 384.256 357.748 382.211L357.748 278.151C357.748 276.106 359.427 274.427 361.472 274.427L465.532 274.427C467.577 274.427 469.257 276.106 469.257 278.151L469.257 382.211C469.257 384.256 467.577 385.935 465.532 385.935ZM361.472 275.887C360.231 275.887 359.208 276.91 359.208 278.151L359.208 382.211C359.208 383.453 360.231 384.475 361.472 384.475L465.532 384.475C466.774 384.475 467.796 383.453 467.796 382.211L467.796 278.151C467.796 276.91 466.774 275.887 465.532 275.887L361.472 275.887Z" fill="#CCCCCC" transform="matrix(1 0 0 1.00034 55.6355 -23.754)"/><path d="M329.195 465.678 488.827 465.678 488.827 467.139 329.195 467.139Z" fill="#CCCCCC" transform="matrix(1 0 0 1.00034 55.6355 -23.754)"/><path d="M339.273 451.292C339.273 454.075 337.017 456.331 334.234 456.331 331.451 456.331 329.195 454.075 329.195 451.292 329.195 448.51 331.451 446.254 334.234 446.254 337.017 446.254 339.273 448.51 339.273 451.292Z" fill="#FF6F61" transform="matrix(1 0 0 1.00034 55.6355 -23.754)"/><path d="M329.195 516.065 488.827 516.065 488.827 517.526 329.195 517.526Z" fill="#CCCCCC" transform="matrix(1 0 0 1.00034 55.6355 -23.754)"/><path d="M339.273 501.68C339.273 504.462 337.017 506.718 334.234 506.718 331.451 506.718 329.195 504.462 329.195 501.68 329.195 498.897 331.451 496.641 334.234 496.641 337.017 496.641 339.273 498.897 339.273 501.68Z" fill="#FF6F61" transform="matrix(1 0 0 1.00034 55.6355 -23.754)"/><path d="M485.833 573.463 435.373 573.463C433.547 573.463 432.087 572.002 432.087 570.177L432.087 552.505C432.087 550.679 433.547 549.219 435.373 549.219L485.833 549.219C487.659 549.219 489.119 550.679 489.119 552.505L489.119 570.177C489.119 572.002 487.659 573.463 485.833 573.463Z" fill="#FF6F61" transform="matrix(1 0 0 1.00034 55.6355 -23.754)"/><path d="M355.703 451.292C355.703 454.075 353.447 456.331 350.664 456.331 347.882 456.331 345.626 454.075 345.626 451.292 345.626 448.51 347.882 446.254 350.664 446.254 353.447 446.254 355.703 448.51 355.703 451.292Z" fill="#FF6F61" transform="matrix(1 0 0 1.00034 55.6355 -23.754)"/><path d="M372.134 451.292C372.134 454.075 369.878 456.331 367.095 456.331 364.312 456.331 362.056 454.075 362.056 451.292 362.056 448.51 364.312 446.254 367.095 446.254 369.878 446.254 372.134 448.51 372.134 451.292Z" fill="#FF6F61" transform="matrix(1 0 0 1.00034 55.6355 -23.754)"/><path d="M355.703 501.68C355.703 504.462 353.447 506.718 350.664 506.718 347.882 506.718 345.626 504.462 345.626 501.68 345.626 498.897 347.882 496.641 350.664 496.641 353.447 496.641 355.703 498.897 355.703 501.68Z" fill="#FF6F61" transform="matrix(1 0 0 1.00034 55.6355 -23.754)"/><path d="M372.134 501.68C372.134 504.462 369.878 506.718 367.095 506.718 364.312 506.718 362.056 504.462 362.056 501.68 362.056 498.897 364.312 496.641 367.095 496.641 369.878 496.641 372.134 498.897 372.134 501.68Z" fill="#FF6F61" transform="matrix(1 0 0 1.00034 55.6355 -23.754)"/><path d="M711.479 684.752 187.162 684.752C186.067 684.752 185.118 684.387 185.118 683.876 185.118 683.365 185.994 683 187.162 683L711.479 683C712.575 683 713.524 683.365 713.524 683.876 713.524 684.387 712.648 684.752 711.479 684.752Z" fill="#3F3D56" transform="matrix(1 0 0 1.00034 55.6355 -23.754)"/><path d="M581.934 496.641C582.299 496.787 582.664 497.006 582.956 497.225L615.744 483.277 616.912 474.66 629.984 474.66C629.984 474.587 629.181 494.377 629.181 494.377L585.95 505.842C585.877 506.134 585.731 506.426 585.658 506.718 583.905 510.442 579.451 512.049 575.727 510.296 572.002 508.544 570.396 504.089 572.148 500.365 573.901 496.641 578.282 495.034 582.007 496.714Z" fill="#FFB8B8" transform="matrix(1 0 0 1.00034 55.6355 -23.754)"/><path d="M634.73 675.916 625.748 675.916 621.513 641.376 634.73 641.376 634.73 675.916Z" fill="#FFB8B8" transform="matrix(1 0 0 1.00034 55.6355 -23.754)"/><path d="M619.395 673.36 636.629 673.36 636.629 684.241 608.515 684.241C608.515 678.253 613.407 673.36 619.395 673.36Z" fill="#2F2E41" transform="matrix(1 0 0 1.00034 55.6355 -23.754)"/><path d="M669.563 673.434 660.654 674.31 652.987 640.353 666.131 639.039 669.563 673.434Z" fill="#FFB8B8" transform="matrix(1 0 0 1.00034 55.6355 -23.754)"/><path d="M654.009 672.338 671.17 670.659 671.17 670.659 672.265 681.466 672.265 681.466 644.297 684.241 644.297 684.241C643.712 678.253 648.094 672.922 654.082 672.338Z" fill="#2F2E41" transform="matrix(1 0 0 1.00034 55.6355 -23.754)"/><path d="M655.177 420.038C655.177 429.959 647.135 438.002 637.213 438.002 627.292 438.002 619.249 429.959 619.249 420.038 619.249 410.117 627.292 402.074 637.213 402.074 647.135 402.074 655.177 410.117 655.177 420.038Z" fill="#FFB8B8" transform="matrix(1 0 0 1.00034 55.6355 -23.754)"/><path d="M623.777 668.979C622.17 668.979 620.856 667.811 620.564 666.277 615.963 640.572 600.774 556.448 600.409 554.111 600.409 554.111 600.409 554.038 600.409 553.965L600.409 547.685C600.409 547.466 600.409 547.247 600.628 547.028L602.6 544.253C602.819 543.961 603.111 543.815 603.403 543.815 614.795 543.304 652.183 541.697 654.009 543.961L654.009 543.961C655.835 546.225 655.177 553.089 655.031 554.476L655.031 554.622C655.031 554.622 671.827 661.969 671.827 661.969 672.119 663.721 670.878 665.401 669.125 665.693L658.61 667.445C657.003 667.738 655.469 666.715 654.958 665.182 651.745 654.812 640.865 619.979 637.067 606.47 637.067 606.251 636.848 606.178 636.629 606.251 636.483 606.251 636.337 606.47 636.337 606.616 636.556 619.468 636.994 652.256 637.14 663.575L637.14 664.817C637.14 666.496 635.899 667.957 634.146 668.103L624.069 669.052C623.996 669.052 623.85 669.052 623.777 669.052Z" fill="#2F2E41" transform="matrix(1 0 0 1.00034 55.6355 -23.754)"/><path d="M625.821 445.012C622.681 446.838 620.783 450.27 619.76 453.775 617.789 460.202 616.547 466.847 616.182 473.638L615.014 493.793 600.92 547.247C613.115 557.543 620.126 555.207 636.556 546.809 652.987 538.411 654.812 549.657 654.812 549.657L658.098 504.162 662.772 454.506C661.75 453.264 660.508 452.096 659.194 451.073 650.431 444.282 638.966 441.799 628.231 444.501L625.748 445.085Z" fill="#FF6F61" transform="matrix(1 0 0 1.00034 55.6355 -23.754)"/><path d="M621.294 507.375C621.659 507.521 622.024 507.668 622.389 507.887L654.739 491.675 655.25 482.912 668.614 481.963 669.344 501.972 626.041 516.284C625.091 520.374 620.929 523.003 616.839 521.98 612.75 521.031 610.121 516.869 611.143 512.779 612.093 508.69 616.255 506.061 620.345 507.083 620.637 507.083 620.929 507.229 621.221 507.375L621.221 507.375Z" fill="#FFB8B8" transform="matrix(1 0 0 1.00034 55.6355 -23.754)"/><path d="M662.626 454.652C670.586 457.5 671.973 487.951 671.973 487.951 662.626 482.766 651.38 491.237 651.38 491.237 651.38 491.237 649.043 483.277 646.195 472.981 644.443 467.066 645.903 460.713 649.92 456.112 649.92 456.112 654.593 451.877 662.553 454.725Z" fill="#FF6F61" transform="matrix(1 0 0 1.00034 55.6355 -23.754)"/><path d="M653.279 424.785C651.015 423.032 648.021 426.245 648.021 426.245L646.268 410.18C646.268 410.18 635.096 411.494 627.939 409.741 620.783 407.989 619.687 416.241 619.687 416.241 619.322 412.882 619.249 409.522 619.468 406.163 619.906 402.147 625.748 398.131 635.972 395.429 646.195 392.727 651.599 404.338 651.599 404.338 658.756 407.916 655.542 426.537 653.279 424.785Z" fill="#2F2E41" transform="matrix(1 0 0 1.00034 55.6355 -23.754)"/></g></svg>