<svg width="242" height="215" xmlns="http://www.w3.org/2000/svg" xmlns:xlink="http://www.w3.org/1999/xlink" xml:space="preserve" overflow="hidden"><defs><clipPath id="clip0"><rect x="58" y="48" width="242" height="215"/></clipPath></defs><g clip-path="url(#clip0)" transform="translate(-58 -48)"><path d="M120.896 0C124.759 0 128.286 2.18359 129.966 5.66895L158.772 65.0039 223.104 74.4941C226.884 75.04 230.033 77.6855 231.209 81.3389 232.385 84.9922 231.419 88.9395 228.731 91.627L182.078 137.902 193.08 203.242C193.71 207.021 192.156 210.843 189.007 213.11 185.857 215.378 181.742 215.63 178.383 213.824L120.854 183.086 63.4082 213.782C60.0068 215.588 55.8916 215.336 52.7842 213.068 49.6768 210.801 48.0811 206.979 48.7109 203.2L59.7129 137.86 13.0596 91.627C10.3301 88.9395 9.40625 84.9502 10.582 81.3389 11.7578 77.7275 14.9072 75.082 18.6865 74.4941L83.0186 65.0039 111.825 5.66895C113.547 2.18359 117.032 0 120.896 0ZM120.896 33.1738 98.8496 78.6094C97.3799 81.5908 94.5664 83.6904 91.249 84.1943L41.5723 91.501 77.6436 127.236C79.9531 129.546 81.0449 132.821 80.499 136.055L71.9746 186.319 116.15 162.72C119.132 161.124 122.701 161.124 125.641 162.72L169.816 186.319 161.334 136.097C160.788 132.863 161.838 129.588 164.189 127.278L200.261 91.543 150.584 84.1943C147.309 83.6904 144.453 81.6328 142.983 78.6094L120.896 33.1738Z" fill="#FDC929" transform="matrix(1.00052 0 0 1 58 48)"/></g></svg>