<svg width="237" height="211" xmlns="http://www.w3.org/2000/svg" xmlns:xlink="http://www.w3.org/1999/xlink" xml:space="preserve" overflow="hidden"><defs><clipPath id="clip0"><rect x="341" y="56" width="237" height="211"/></clipPath></defs><g clip-path="url(#clip0)" transform="translate(-341 -56)"><path d="M130.391 7.40625C128.21 2.88021 123.602 0 118.541 0 113.48 0 108.913 2.88021 106.691 7.40625L80.2344 61.8422 21.149 70.5651C16.2115 71.3057 12.0969 74.762 10.5745 79.4938 9.05208 84.2255 10.2865 89.451 13.825 92.9484L56.699 135.37 46.5771 195.319C45.7542 200.257 47.8115 205.277 51.8849 208.198 55.9583 211.119 61.3484 211.49 65.7922 209.144L118.582 180.959 171.372 209.144C175.816 211.49 181.206 211.16 185.28 208.198 189.353 205.235 191.41 200.257 190.588 195.319L180.424 135.37 223.298 92.9484C226.837 89.451 228.113 84.2255 226.549 79.4938 224.985 74.762 220.912 71.3057 215.974 70.5651L156.848 61.8422 130.391 7.40625Z" fill="#FDC929" transform="matrix(1 0 0 1.00158 341 56)"/></g></svg>