<svg width="512" height="512" xmlns="http://www.w3.org/2000/svg" xmlns:xlink="http://www.w3.org/1999/xlink" xml:space="preserve" overflow="hidden"><g transform="translate(-613 -167)"><path d="M926.4 199.9C952.4 205.1 969.3 230.4 964.1 256.4L961.8 267.8C956.5 294.5 946.7 319.9 933 343L1077 343C1103.5 343 1125 364.5 1125 391 1125 409.5 1114.5 425.6 1099.1 433.6 1110 442.4 1117 455.9 1117 471 1117 494.4 1100.2 513.9 1078.1 518.1 1082.5 525.4 1085 533.9 1085 543 1085 564.3 1071.1 582.4 1051.9 588.6 1052.6 591.9 1053 595.4 1053 599 1053 625.5 1031.5 647 1005 647L907.5 647C888.5 647 870 641.4 854.2 630.9L815.7 605.2C789 587.4 773 557.4 773 525.3L773 487 773 439 773 414.1C773 384.9 786.3 357.4 809 339.1L816.4 333.2C842.9 312 861 282.2 867.6 249L869.9 237.6C875.1 211.6 900.4 194.7 926.4 199.9ZM645 359 709 359C726.7 359 741 373.3 741 391L741 615C741 632.7 726.7 647 709 647L645 647C627.3 647 613 632.7 613 615L613 391C613 373.3 627.3 359 645 359Z" fill="#8ED973"/></g></svg>