<svg width="97" height="97" xmlns="http://www.w3.org/2000/svg" xmlns:xlink="http://www.w3.org/1999/xlink" xml:space="preserve" overflow="hidden"><defs><clipPath id="clip0"><rect x="473" y="188" width="97" height="97"/></clipPath></defs><g clip-path="url(#clip0)" transform="translate(-473 -188)"><path d="M50.104 2.00416C23.5489 2.00416 2.00416 23.5489 2.00416 50.104 2.00416 76.659 23.5489 98.2037 50.104 98.2037 76.659 98.2037 98.2037 76.659 98.2037 50.104 98.2037 23.5489 76.659 2.00416 50.104 2.00416ZM74.8553 38.4798 46.5967 66.8387C45.6948 67.7405 44.3921 68.3418 43.0894 68.3418 41.7867 68.3418 40.484 67.8407 39.5821 66.8387L25.3526 52.6091C23.3484 50.605 23.3484 47.4985 25.3526 45.4944 27.3568 43.4902 30.4632 43.4902 32.4674 45.4944L43.0894 56.1164 67.8407 31.3651C69.8449 29.3609 72.9514 29.3609 74.9555 31.3651 76.8595 33.3692 76.8595 36.4757 74.8553 38.4798Z" fill="#43A047" transform="matrix(1.00205 0 0 1 471.423 186.395)"/><text fill="#43A047" font-family="Helvetica,Helvetica_MSFontService,sans-serif" font-weight="700" font-size="5" transform="matrix(1.00413 0 0 1.00208 471.423 302)">Created by Kiran Shastry</text><text fill="#43A047" font-family="Helvetica,Helvetica_MSFontService,sans-serif" font-weight="700" font-size="5" transform="matrix(1.00413 0 0 1.00208 471.423 307)">from the Noun Project</text></g></svg>