<svg width="448" height="512" xmlns="http://www.w3.org/2000/svg" xmlns:xlink="http://www.w3.org/1999/xlink" xml:space="preserve" overflow="hidden"><g transform="translate(-128 -46)"><path d="M263.2 63.7 256 78 160 78C142.3 78 128 92.3 128 110 128 127.7 142.3 142 160 142L544 142C561.7 142 576 127.7 576 110 576 92.3 561.7 78 544 78L448 78 440.8 63.7C435.4 52.8 424.3 46 412.2 46L291.8 46C279.7 46 268.6 52.8 263.2 63.7ZM544 174 160 174 181.2 513C182.8 538.3 203.8 558 229.1 558L474.9 558C500.2 558 521.2 538.3 522.8 513L544 174Z" fill="#262626"/></g></svg>