<svg width="126" height="120" xmlns="http://www.w3.org/2000/svg" xmlns:xlink="http://www.w3.org/1999/xlink" xml:space="preserve" overflow="hidden"><defs><clipPath id="clip0"><rect x="691" y="232" width="126" height="120"/></clipPath></defs><g clip-path="url(#clip0)" transform="translate(-691 -232)"><path d="M-5917.2-2059.42C-5917.82-2059.44-5918.5-2059.22-5919.01-2058.76L-5946.65-2034.38C-5953.2-2028.53-5953.49-2018.37-5947.29-2012.16L-5947.19-2012.07-5954.9-2004.72-5962.77-2012.25C-5957.16-2019.88-5956.62-2029.2-5968.19-2040.76-5981.64-2054.21-5999.22-2058.44-6007.47-2050.19-6015.72-2041.95-6011.49-2024.36-5998.03-2010.9-5986.5-1999.34-5977.17-1999.89-5969.54-2005.49L-5962.18-1997.77-5987.87-1973.22C-5990.32-1970.89-5990.27-1966.99-5987.87-1964.6-5985.5-1962.21-5981.59-1962.16-5979.27-1964.6L-5954.9-1990.14-5930.44-1964.55C-5928.12-1962.11-5924.21-1962.16-5921.84-1964.55-5919.44-1966.94-5919.39-1970.84-5921.84-1973.17L-5947.59-1997.77-5940.42-2005.3-5940.31-2005.2C-5934.11-1998.99-5923.92-1999.25-5918.09-2005.83L-5893.72-2033.48C-5892.8-2034.51-5892.86-2036.08-5893.83-2037.06L-5897.12-2040.35-5915.48-2022C-5916.29-2021.19-5917.53-2021.12-5918.26-2021.86L-5920.71-2024.29C-5921.44-2025.02-5921.36-2026.27-5920.55-2027.08L-5902.21-2045.43-5907.04-2050.28-5925.4-2031.93C-5926.21-2031.11-5927.45-2031.05-5928.21-2031.79L-5930.63-2034.21C-5931.36-2034.95-5931.31-2036.2-5930.5-2037.01L-5912.14-2055.36-5915.43-2058.65C-5915.91-2059.14-5916.56-2059.4-5917.2-2059.42Z" fill="#FFFFFF" transform="matrix(1.00534 0 0 1 6739.7 2305.44)"/><text fill="#FFFFFF" font-family="Helvetica,Helvetica_MSFontService,sans-serif" font-weight="700" font-size="5" transform="matrix(2.71053 0 0 2.69613 618.652 471)">Created by Muhammad Hafiz</text><text fill="#FFFFFF" font-family="Helvetica,Helvetica_MSFontService,sans-serif" font-weight="700" font-size="5" transform="matrix(2.71053 0 0 2.69613 618.652 484)">from the Noun Project</text></g></svg>